<?xml version="1.0" encoding="utf-8"?>
<!-- Generator: Adobe Illustrator 26.3.1, SVG Export Plug-In . SVG Version: 6.00 Build 0)  -->
<svg version="1.1" id="Layer_1" xmlns="http://www.w3.org/2000/svg" xmlns:xlink="http://www.w3.org/1999/xlink" x="0px" y="0px"
	 width="3300px" height="2200px" viewBox="0 0 3300 2200" style="enable-background:new 0 0 3300 2200;" xml:space="preserve">
<style type="text/css">
	.st0{fill:#FFFFFF;}
	.st1{fill:none;stroke:#000000;stroke-width:0.5;}
	.st2{font-family:'Helvetica-Bold';}
	.st3{font-size:13px;}
	.st4{font-family:'Helvetica';}
	.st5{fill:none;stroke:#00AEEF;stroke-width:0.5;}
	.st6{fill:#27AAE1;}
	.st7{fill:none;stroke:#27AAE1;stroke-width:0.5;}
</style>
<g id="Notes">
	<rect id="artboard" class="st0" width="3300" height="2200"/>
	<line class="st1" x1="263" y1="292" x2="3036" y2="292"/>
	<text transform="matrix(1 0 0 1 263 322)" class="st2 st3">Weight/Scale Variations</text>
	<text transform="matrix(1 0 0 1 534.0632935 322)" class="st4 st3">Ultralight</text>
	<text transform="matrix(1 0 0 1 843.7774658 322)" class="st4 st3">Thin</text>
	<text transform="matrix(1 0 0 1 1139.0350342 322)" class="st4 st3">Light</text>
	<text transform="matrix(1 0 0 1 1427.0772705 322)" class="st4 st3">Regular</text>
	<text transform="matrix(1 0 0 1 1723.4418945 322)" class="st4 st3">Medium</text>
	<text transform="matrix(1 0 0 1 2016.171875 322)" class="st4 st3">Semibold</text>
	<text transform="matrix(1 0 0 1 2326.970459 322)" class="st4 st3">Bold</text>
	<text transform="matrix(1 0 0 1 2618.2658691 322)" class="st4 st3">Heavy</text>
	<text transform="matrix(1 0 0 1 2917.5053711 322)" class="st4 st3">Black</text>
	<line class="st1" x1="263" y1="1903" x2="3036" y2="1903"/>
	<g transform="matrix(1 0 0 1 263 1933)">
		<path d="M9.2480497,0.830078C10.3287497,0.8300779,11.344367,0.625,12.2948999,0.214844
			c0.9505339-0.4101567,1.7887669-0.979818,2.5146999-1.708984c0.7258663-0.7291666,1.2955332-1.5690097,1.7090006-2.5195298
			c0.4134007-0.95052,0.6201-1.9628901,0.6201-3.0371099s-0.2066994-2.0865941-0.6201-3.0371203
			c-0.4134674-0.9505329-0.984767-1.7903662-1.7139006-2.5194998c-0.7291994-0.7292004-1.5690327-1.2988663-2.5194998-1.7089996
			c-0.9505339-0.4101334-1.9661732-0.6152-3.0469198-0.6152c-1.0742207,0-2.0865903,0.2050667-3.0371103,0.6152
			s-1.7871065,0.9797993-2.5097599,1.7089996C2.96875-11.8782663,2.4007132-11.0384331,1.9873-10.0879002
			C1.5738934-9.1373739,1.36719-8.125,1.36719-7.0507798S1.5738934-4.96419,1.9873-4.01367
			C2.4007132-3.0631497,2.9703767-2.2233067,3.69629-1.49414s1.5641298,1.2988274,2.5146499,1.708984
			C7.1614604,0.625,8.17383,0.8300779,9.2480497,0.830078z M9.2480497-0.654297c-0.8854198,0-1.71387-0.1643876-2.4853497-0.493163
			c-0.7714868-0.3287734-1.4485698-0.78613-2.03125-1.3720701C4.1487632-3.1054699,3.6930332-3.7858098,3.36426-4.5605502
			c-0.3287802-0.7747402-0.49317-1.6048164-0.49317-2.4902296c0-0.8854198,0.1627634-1.7155004,0.4882901-2.4902406
			c0.32552-0.7747192,0.7796199-1.4550467,1.3623002-2.0409794c0.5826797-0.5859337,1.2597632-1.0433006,2.03125-1.3720999
			C7.5244164-13.2829008,8.3528671-13.4473,9.2382803-13.4473c0.8919458,0,1.7236528,0.1643991,2.49512,0.4932003
			c0.7714672,0.3287992,1.4501667,0.7861662,2.0360994,1.3720999c0.5859337,0.5859327,1.0449333,1.2662601,1.3769999,2.0409794
			c0.3320007,0.7747402,0.4980001,1.6048207,0.4980001,2.4902406c0,0.8854132-0.1643667,1.7154894-0.4931002,2.4902296
			c-0.3287992,0.7747405-0.7845325,1.4550803-1.3671999,2.0410202c-0.5826664,0.5859401-1.2613993,1.0432967-2.0361996,1.3720701
			C10.9732666-0.8186846,10.1399498-0.654297,9.2480497-0.654297z M5.6543002-7.0507798
			c0,0.2148399,0.0683599,0.3889933,0.2050796,0.52246C5.9960933-6.3948536,6.1783829-6.3281198,6.40625-6.3281202h2.1093702
			v2.1191401c0,0.2148402,0.0651064,0.3922467,0.1953201,0.5322201C8.8411474-3.5367868,9.0169268-3.4668,9.2382803-3.4668
			c0.2148457,0,0.3922558-0.0699868,0.5322294-0.20996c0.1399736-0.1399734,0.20996-0.31738,0.20996-0.5322201v-2.1191401h2.1093302
			c0.2214003,0.0000005,0.400466-0.0667334,0.5372-0.2001996c0.1366673-0.1334667,0.2049999-0.30762,0.2049999-0.52246
			c0-0.2213535-0.0683327-0.4003901-0.2049999-0.5371103c-0.136734-0.1367197-0.3157997-0.20508-0.5372-0.20508H9.9804697
			v-2.1093698c0-0.2213736-0.0699863-0.4020262-0.20996-0.5419598c-0.1399736-0.1400003-0.3173838-0.21-0.5322294-0.21
			c-0.2213535,0-0.3971329,0.0699997-0.5273399,0.21c-0.1302137,0.1399336-0.1953201,0.3205862-0.1953201,0.5419598v2.1093698
			H6.40625c-0.2278671,0-0.4101567,0.0683603-0.5468702,0.20508C5.7226601-7.45117,5.6543002-7.2721334,5.6543002-7.0507798z"/>
	</g>
	<g transform="matrix(1 0 0 1 281.867 1933)">
		<path d="M11.7089996,2.9101601c1.3606672,0,2.6416006-0.2604167,3.8428001-0.78125
			c1.2011337-0.5208334,2.2607002-1.2402358,3.1786995-2.1582069c0.9179344-0.9179688,1.6373348-1.9775398,2.1582012-3.1787131
			c0.5207996-1.2011731,0.7812004-2.4820969,0.7812004-3.8427699c0-1.3606801-0.2604008-2.6416202-0.7812004-3.8428206
			c-0.5208664-1.2011337-1.2402668-2.2606993-2.1582012-3.1786995c-0.9179993-0.9179335-1.9792004-1.6373329-3.1835995-2.1581993
			c-1.2044668-0.5207996-2.4870329-0.7812004-3.8477001-0.7812004s-2.6415825,0.2604008-3.8427491,0.7812004
			c-1.2011733,0.5208664-2.2591166,1.2402658-3.17383,2.1581993c-0.9147131,0.9180002-1.6324866,1.9775658-2.1533201,3.1786995
			C2.0084672-9.6924,1.7480505-8.4114599,1.7480503-7.0507798C1.7480505-5.6901069,2.0084672-4.409183,2.5293005-3.20801
			s1.2402332,2.2607443,2.1582,3.1787131c0.9179664,0.9179712,1.9775367,1.6373736,3.17871,2.1582069
			S10.3483133,2.9101601,11.7089996,2.9101601z M11.7089996,1.25c-1.1523533,0-2.2298326-0.2148436-3.23244-0.644531
			C7.4739599,0.1757813,6.5934277-0.418295,5.8349605-1.17676c-0.75846-0.7584602-1.3509068-1.6389933-1.7773399-2.6416001
			S3.4179704-5.8984399,3.4179704-7.0507798c0-1.1523461,0.2132168-2.2298207,0.6396501-3.2324204
			s1.0172534-1.8847656,1.77246-2.6464996c0.7552066-0.7617331,1.6341133-1.3557997,2.6367192-1.7821999
			c1.0025997-0.4264669,2.0800667-0.6396999,3.2323999-0.6396999s2.2298002,0.213233,3.2323999,0.6396999
			c1.0025997,0.4264002,1.8847666,1.0204668,2.6465006,1.7821999c0.761734,0.761734,1.3574333,1.6438999,1.7870998,2.6464996
			C19.7949333-9.2806005,20.0098-8.203126,20.0098-7.0507798c0,1.1523399-0.213232,2.2298131-0.6396999,3.2324197
			c-0.4263992,1.0026069-1.0188332,1.88314-1.7772999,2.6416001c-0.7584667,0.7584649-1.6406336,1.3525413-2.6465006,1.7822289
			S12.8613329,1.25,11.7089996,1.25z M7.1777306-7.0507798c0,0.2343731,0.0781269,0.4264297,0.2343798,0.57617
			C7.5683575-6.3248696,7.7701802-6.25,8.01758-6.25h2.8711195v2.8808601c0,0.2473931,0.0748672,0.4475899,0.2246008,0.60059
			c0.1497335,0.1529932,0.3417997,0.2294898,0.5761995,0.2294898c0.2473335,0,0.4475002-0.0764966,0.6005001-0.2294898
			c0.1529999-0.1530001,0.2294998-0.3531969,0.2294998-0.60059V-6.25h2.8809004
			c0.2473993,0,0.4475994-0.0748696,0.6005993-0.2246099s0.2294998-0.3417969,0.2294998-0.57617
			c0-0.2473998-0.0764999-0.4475965-0.2294998-0.6005902c-0.1529999-0.1529932-0.3532-0.2294898-0.6005993-0.2294898h-2.8809004
			v-2.87114c0-0.2538671-0.0764999-0.4573002-0.2294998-0.6103001s-0.3531666-0.2294998-0.6005001-0.2294998
			c-0.2343998,0-0.426466,0.0781326-0.5761995,0.2343998c-0.1497335,0.1562662-0.2246008,0.3580666-0.2246008,0.6054001v2.87114
			H8.01758c-0.2539062,0-0.4573565,0.0764966-0.6103497,0.2294898C7.2542305-7.4983764,7.1777306-7.2981796,7.1777306-7.0507798z"/>
	</g>
	<g transform="matrix(1 0 0 1 305.646 1933)">
		<path d="M14.9707003,5.6640601c1.393199,0,2.7229662-0.2164702,3.9892988-0.6494102
			c1.2662678-0.4329467,2.4300003-1.0400431,3.4912014-1.8212898c1.0611992-0.7812533,1.9840317-1.7024773,2.7684994-2.7636721
			c0.7845325-1.0611987,1.3932667-2.2265646,1.8262005-3.496098c0.4329338-1.2695265,0.6493988-2.5976501,0.6493988-3.9843698
			c0-1.3932271-0.216465-2.7229667-0.6493988-3.9892201c-0.4329338-1.2663326-1.0416679-2.4300671-1.8262005-3.4912004
			c-0.7844677-1.0611992-1.7073002-1.984066-2.7684994-2.7686005c-1.0612011-0.7845325-2.2265682-1.3932667-3.4961014-1.8261986
			c-1.2695312-0.4329338-2.6009331-0.6494007-3.9941988-0.6494007c-1.3931999,0-2.7229328,0.2164669-3.9892006,0.6494007
			c-1.2662859,0.4329319-2.4284029,1.041666-3.4863496,1.8261986c-1.05794,0.7845345-1.9791632,1.7074013-2.76367,2.7686005
			C3.9371731-13.470067,3.3300765-12.3063326,2.9003899-11.04c-0.4296865,1.2662535-0.6445298,2.595993-0.6445298,3.9892201
			c0,1.3867197,0.21647,2.7148433,0.64941,3.9843698c0.4329467,1.2695335,1.0400431,2.4348993,1.82129,3.496098
			c0.7812529,1.0611948,1.7024765,1.9824188,2.76367,2.7636721c1.0612006,0.7812467,2.2249236,1.3883431,3.4911695,1.8212898
			C12.2477341,5.4475899,13.5775003,5.6640601,14.9707003,5.6640601z M14.9707003,3.8476601
			c-1.2044001,0-2.3518677-0.1839199-3.4424-0.55176c-1.0904799-0.3678403-2.0881939-0.88379-2.9931402-1.5478501
			c-0.904953-0.6640646-1.6910863-1.4501987-2.3583999-2.358402C5.5094399-1.5185572,4.9934897-2.5179067,4.6289101-3.6084001
			C4.2643232-4.6988935,4.0820298-5.8463535,4.0820298-7.0507798c0-1.2109399,0.1822934-2.3616471,0.5468802-3.4521203
			c0.3645797-1.0905333,0.8789029-2.0899,1.5429697-2.9981003c0.6640601-0.9081993,1.4485636-1.6943321,2.3535099-2.3583994
			c0.9049463-0.6640663,1.9026833-1.1783657,2.9932108-1.5429001c1.0904665-0.3645992,2.2378998-0.5468998,3.4422998-0.5468998
			c1.2109327,0,2.3616648,0.1823006,3.452199,0.5468998c1.0904655,0.3645344,2.0897999,0.8788338,2.9980011,1.5429001
			c0.9081993,0.6640673,1.6943321,1.4502001,2.3584003,2.3583994c0.6640682,0.9082003,1.1800327,1.907567,1.5478992,2.9981003
			c0.3678017,1.0904732,0.5517006,2.2411804,0.5517006,3.4521203c0.0065327,1.2044263-0.1725006,2.3518863-0.5370998,3.4423797
			c-0.3645325,1.0904934-0.8804684,2.0898428-1.5478001,2.9980481c-0.6673336,0.9082034-1.455101,1.6943374-2.3633003,2.358402
			c-0.9081993,0.6640601-1.9075336,1.1800098-2.9980011,1.5478501C17.3323669,3.6637402,16.181633,3.8476601,14.9707003,3.8476601z
			 M9.1992197-7.0507798c0,0.2539067,0.0862637,0.4638662,0.25879,0.62988
			c0.1725264,0.1660132,0.3922567,0.2490196,0.6591902,0.2490201H14.0625V-2.2168
			c0,0.2669266,0.0830002,0.4866532,0.2489996,0.6591799c0.1660004,0.1725267,0.3792343,0.25879,0.6396999,0.25879
			c0.2669334,0,0.4866667-0.0846334,0.6592007-0.2538999c0.1724663-0.1692734,0.2586994-0.39063,0.2586994-0.66407v-3.9550798
			h3.9551001c0.2669334-0.0000005,0.485033-0.0830069,0.6543007-0.2490201
			c0.1692677-0.1660137,0.2539005-0.3759732,0.2539005-0.62988c0-0.2734404-0.0846329-0.4947929-0.2539005-0.6640601
			C20.3092327-7.8841133,20.0911331-7.96875,19.8241997-7.96875h-3.9551001v-3.9453497
			c0-0.2734003-0.0862331-0.4963665-0.2586994-0.6689005c-0.172534-0.172534-0.3922672-0.2587996-0.6592007-0.2587996
			c-0.2604656,0-0.4736996,0.0862656-0.6396999,0.2587996C14.1455002-12.4104662,14.0625-12.1875,14.0625-11.9140997V-7.96875
			h-3.9453001c-0.2734461,0-0.4948063,0.0846367-0.6640797,0.2539101C9.2838526-7.5455728,9.1992197-7.3242202,9.1992197-7.0507798z
			"/>
	</g>
	<text transform="matrix(1 0 0 1 263 1953)" class="st2 st3">Design Variations</text>
	<text transform="matrix(1 0 0 1 263 1971)" class="st4 st3">Symbols are supported in up to nine weights and three scales.</text>
	<text transform="matrix(1 0 0 1 263 1989)" class="st4 st3">For optimal layout with text and other symbols, vertically align</text>
	<text transform="matrix(1 0 0 1 263 2007)" class="st4 st3">symbols with the adjacent text.</text>
	<line class="st5" x1="776" y1="1919" x2="776" y2="1933"/>
	<g transform="matrix(1 0 0 1 776 1933)">
		<path d="M3.31055,0.15625c0.2604132,0,0.4622364-0.0553385,0.6054699-0.1660156
			C4.0592465-0.1204425,4.1764331-0.3125,4.26758-0.585938l1.2597599-3.4472618h5.7617598l1.2597008,3.4472618
			c0.0911331,0.273438,0.208333,0.4654954,0.3515997,0.5761724c0.143199,0.1106771,0.3417673,0.1660156,0.5957003,0.1660156
			c0.2603998,0,0.4670992-0.0716146,0.6201-0.2148438c0.1529999-0.1432295,0.2294998-0.3385418,0.2294998-0.5859372
			c0-0.14974-0.035799-0.325523-0.1073999-0.527349L9.6582003-13.3690996
			c-0.1171875-0.2995338-0.2766895-0.524168-0.4785099-0.6739006c-0.201827-0.1497335-0.4589901-0.2245998-0.7714901-0.2245998
			c-0.6054673,0-1.0156236,0.2962332-1.2304702,0.8887005L2.5976601-1.16211c-0.07162,0.2018234-0.10743,0.3776046-0.10743,0.527344
			c0,0.247396,0.0732434,0.441081,0.2197299,0.5810551S3.0566432,0.15625,3.31055,0.15625z M6.0058599-5.51758l2.3730502-6.5722198
			h0.0488195L10.8008003-5.51758H6.0058599z"/>
	</g>
	<line class="st5" x1="793.1970215" y1="1919" x2="793.1970215" y2="1933"/>
	<text transform="matrix(1 0 0 1 776 1953)" class="st2 st3">Margins</text>
	<text transform="matrix(1 0 0 1 776 1971)" class="st4 st3">Leading and trailing margins on the left and right side of each symbol</text>
	<text transform="matrix(1 0 0 1 776 1989)" class="st4 st3">can be adjusted by modifying the x-location of the margin guidelines.</text>
	<text transform="matrix(1 0 0 1 776 2007)" class="st4 st3">Modifications are automatically applied proportionally to all</text>
	<text transform="matrix(1 0 0 1 776 2025)" class="st4 st3">scales and weights.</text>
	<g transform="matrix(1 0 0 1 1289 1933)">
		<path d="M2.8418,1.86523l1.6992199,1.70899c0.429687,0.4361999,0.8837867,0.6380236,1.3622999,0.6054699
			c0.4785137-0.0325532,0.9488897-0.30599,1.41113-0.8203099L18.0077991-8.4277296l-0.9667988-0.9765701L6.4257798,2.2753899
			C6.25,2.47721,6.0725899,2.5911434,5.8935499,2.6171899c-0.1790328,0.0260401-0.3857369-0.0781267-0.62011-0.3125
			L4.1015601,1.14258c-0.2343733-0.234376-0.33691-0.4410824-0.30761-0.620119
			c0.0292933-0.1790367,0.14485-0.3597007,0.3466702-0.5419922L15.6152-10.8203001l-0.9765005-0.9667997L3.04688-0.898438
			C2.5520866-0.4427086,2.2867866,0.0227863,2.2509799,0.498047C2.2151732,0.973309,2.4121132,1.4290366,2.8418,1.86523z
			 M9.2578096-16.3281002C9.0494766-16.1262989,8.9322901-15.8951998,8.90625-15.6348
			c-0.0260401,0.2604666,0.0195341,0.4883337,0.1367197,0.6836004c0.1171865,0.182333,0.288084,0.319066,0.5126905,0.4101992
			c0.2246132,0.0911331,0.4996939,0.0976334,0.8252401,0.0195007c0.7291336-0.1692667,1.4680653-0.239234,2.2167997-0.2098999
			c0.7486668,0.0292664,1.4810667,0.2782669,2.1971998,0.7469997l-0.5859003,1.4551001
			c-0.1692657,0.416667-0.216466,0.7796326-0.1415997,1.0888996c0.0748663,0.3092003,0.2457666,0.6005335,0.5127001,0.8740005
			L16.875-8.2519503c0.2408657,0.2473936,0.4752331,0.3906202,0.7031002,0.4296803
			c0.2278671,0.0390668,0.4817677,0.0325565,0.7616997-0.0195303l1.0645008-0.1953101l0.6640987,0.6738305l-0.0390987,0.5566397
			c-0.0195332,0.2473936,0.0114002,0.4752569,0.0928001,0.6835899c0.0813332,0.2083335,0.242466,0.4329433,0.4833984,0.67383
			l0.7617016,0.7421904c0.2408676,0.2408867,0.5028992,0.3662133,0.7860985,0.3759799
			c0.2832012,0.0097599,0.5419998-0.1025472,0.7764015-0.3369203l2.910099-2.91992
			c0.2344017-0.2343731,0.3483334-0.4899068,0.3418007-0.7666001c-0.0064678-0.2766933-0.1301689-0.5354834-0.3711014-0.77637
			L25.0391006-9.89258c-0.2343998-0.24088-0.454134-0.4052534-0.6592007-0.4931202
			c-0.2050667-0.0879335-0.4280663-0.1221333-0.6690006-0.1026001L23.1348-10.4394999L22.4902-11.0741997L22.7343998-12.1973
			c0.0650673-0.2799339,0.0520325-0.5419664-0.0391006-0.7861004s-0.2831993-0.5127001-0.5761986-0.8056993l-2.1972008-2.1875
			c-0.8333321-0.8268003-1.7203999-1.4469004-2.6611996-1.860301c-0.940733-0.4133987-1.8880005-0.628233-2.8418007-0.6444988
			c-0.9537325-0.0163326-1.8716993,0.1578007-2.7538996,0.5223999C10.7828665-17.5944004,9.9804697-17.050766,9.2578096-16.3281002z
			 M10.7519999-15.9569998c0.6054668-0.4427328,1.2548666-0.7585001,1.9482002-0.9473009
			c0.6933327-0.1887989,1.3948326-0.249033,2.1044998-0.1806984c0.7096004,0.0683994,1.3980665,0.2588329,2.0654001,0.5712986
			c0.6673317,0.3125343,1.2776985,0.7487326,1.8311005,1.3086004l2.4315987,2.4120998
			c0.1172009,0.1171999,0.1904335,0.2311335,0.2197018,0.3418007c0.0293331,0.1106663,0.0244656,0.2506657-0.0146008,0.4199991
			l-0.3223,1.4843006L22.5195007-9.0625l0.9863987-0.0585899c0.1236687-0.0065136,0.2180691,0.0016232,0.2832012,0.0244102
			c0.0650654,0.0227861,0.146431,0.0830069,0.2440987,0.1806593l0.5762005,0.5761805l-2.4414005,2.4414001l-0.5761986-0.57617
			C21.494133-6.5722632,21.4322662-6.6536431,21.4062004-6.71875c-0.0259991-0.0651069-0.0357323-0.1627636-0.0291996-0.2929702
			l0.0682983-0.9765596l-1.4940987-1.4843802L18.4277-9.21875c-0.1627331,0.0325537-0.2912998,0.0374365-0.3857002,0.0146503
			c-0.0944004-0.0227871-0.2034664-0.0927744-0.3271999-0.20996l-2.0018997-2.0019407
			c-0.1302004-0.1171999-0.203433-0.2294998-0.2196999-0.3368998c-0.0162668-0.1074667,0.0146322-0.2523336,0.0927-0.4345999
			l0.8788996-2.0897999c-0.7811995-0.7292004-1.6601-1.2337675-2.6366997-1.5137005
			c-0.9765329-0.279932-1.9726343-0.2701664-2.9883003,0.0293007c-0.0780659,0.0195322-0.1285,0.0048666-0.1512995-0.0440006
			C10.6657-15.8544998,10.6868668-15.904933,10.7519999-15.9569998z"/>
	</g>
	<text transform="matrix(1 0 0 1 1289 1953)" class="st2 st3">Exporting</text>
	<text transform="matrix(1 0 0 1 1289 1971)" class="st4 st3">Symbols should be outlined when exporting to ensure the</text>
	<text transform="matrix(1 0 0 1 1289 1989)" class="st4 st3">design is preserved when submitting to Xcode.</text>
	<text id="template-version" transform="matrix(1 0 0 1 2952.4140625 1933)" class="st4 st3">Template v.3.0</text>
	<text transform="matrix(1 0 0 1 2865.4575195 1951)" class="st4 st3">Requires Xcode 13 or greater</text>
	<text id="descriptive-name" transform="matrix(1 0 0 1 2879.206543 1969)" class="st4 st3">Generated from seed.circle</text>
	<text transform="matrix(1 0 0 1 2912.4111328 1987)" class="st4 st3">Typeset at 100 points</text>
	<text transform="matrix(1 0 0 1 263 726)" class="st4 st3">Small</text>
	<text transform="matrix(1 0 0 1 263 1156)" class="st4 st3">Medium</text>
	<text transform="matrix(1 0 0 1 263 1586)" class="st4 st3">Large</text>
</g>
<g id="Guides">
	<g id="H-reference" transform="matrix(1 0 0 1 339 696)">
		<path class="st6" d="M0.993347,0h2.6443532l25.6904984-67.1325989h0.7019005v-3.3264008h-1.9074001L0.993347,0z
			 M11.6882-24.4797001h35.293602l-0.7507019-2.2490997H12.4382L11.6882-24.4797001z M55.1193008,0h2.6443977L30.6380997-70.4589996
			h-1.2054005v3.3264008L55.1193008,0z"/>
	</g>
	<line id="Baseline-S" class="st7" x1="263" y1="696" x2="3036" y2="696"/>
	<line id="Capline-S" class="st7" x1="263" y1="625.5410156" x2="3036" y2="625.5410156"/>
	<g id="H-reference_00000162337760708759936730000014251244580458777257_" transform="matrix(1 0 0 1 339 1126)">
		<path class="st6" d="M0.993347,0h2.6443532l25.6904984-67.1325989h0.7019005v-3.3264008h-1.9074001L0.993347,0z
			 M11.6882-24.4797001h35.293602l-0.7507019-2.2490997H12.4382L11.6882-24.4797001z M55.1193008,0h2.6443977L30.6380997-70.4589996
			h-1.2054005v3.3264008L55.1193008,0z"/>
	</g>
	<line id="Baseline-M" class="st7" x1="263" y1="1126" x2="3036" y2="1126"/>
	<line id="Capline-M" class="st7" x1="263" y1="1055.5400391" x2="3036" y2="1055.5400391"/>
	<g id="H-reference_00000117652438090036589580000010335206072886879640_" transform="matrix(1 0 0 1 339 1556)">
		<path class="st6" d="M0.993347,0h2.6443532l25.6904984-67.1325989h0.7019005v-3.3264008h-1.9074001L0.993347,0z
			 M11.6882-24.4797001h35.293602l-0.7507019-2.2490997H12.4382L11.6882-24.4797001z M55.1193008,0h2.6443977L30.6380997-70.4589996
			h-1.2054005v3.3264008L55.1193008,0z"/>
	</g>
	<line id="Baseline-L" class="st7" x1="263" y1="1556" x2="3036" y2="1556"/>
	<line id="Capline-L" class="st7" x1="263" y1="1485.5400391" x2="3036" y2="1485.5400391"/>
	<line id="left-margin-Regular-M" class="st5" x1="1391.2900391" y1="1030.7800293" x2="1391.2900391" y2="1150.1199951"/>
	<line id="right-margin-Regular-M" class="st5" x1="1508.3900146" y1="1030.7800293" x2="1508.3900146" y2="1150.1199951"/>
</g>
<g id="Symbols_00000102506313638291472500000011284065288129232532_">
	<path id="Semibold-L" d="M2043.2199707,1454.7705078
		c-36.4508057,0-66,29.5491943-66,66s29.5491943,66,66,66c36.4506836,0,66-29.5491943,66-66
		S2079.6706543,1454.7705078,2043.2199707,1454.7705078z M2043.2199707,1572.1855469
		c-28.3503418,0-51.4150391-23.0646973-51.4150391-51.4150391s23.0646973-51.4150391,51.4150391-51.4150391
		s51.4150391,23.0646973,51.4150391,51.4150391S2071.5703125,1572.1855469,2043.2199707,1572.1855469z M2074.487793,1520.527832
		c4.9938965,0,9.0566406-4.0627441,9.0566406-9.0565186s-4.0627441-9.0565186-9.0566406-9.0565186
		c-4.7370605,0-8.6359863,3.6561279-9.0241699,8.2947998l-8.8657227,1.6870117
		c-0.7368164-2.0118408-1.9086914-3.8565674-3.46875-5.416626c-1.9006348-1.9007568-4.2236328-3.2253418-6.7570801-3.8883057
		l0.5344238-5.6687012c5.3212891-0.7021484,9.4416504-5.267334,9.4416504-10.7773438
		c0-5.9945068-4.8769531-10.8713379-10.87146-10.8713379c-5.9946289,0-10.87146,4.8768311-10.87146,10.8713379
		c0,4.8006592,3.1279297,8.8839111,7.4526367,10.3201904l-0.5350342,5.6738281
		c-3.5993652,0.2459717-6.949707,1.7647705-9.5251465,4.340332c-0.4002686,0.4002686-0.7740479,0.8198242-1.1225586,1.2554932
		l-9.4177246-5.2550049c0.1871338-0.7393799,0.2868652-1.5133057,0.2868652-2.3100586
		c0-5.1966553-4.2277832-9.4243164-9.4243164-9.4243164c-5.1966553,0-9.4244385,4.2276611-9.4244385,9.4243164
		s4.2277832,9.4244385,9.4244385,9.4244385c2.6488037,0,5.0455322-1.098999,6.7593994-2.8643799l9.416748,5.2543945
		c-0.5750732,1.6019287-0.8748779,3.3083496-0.8748779,5.0609131c0,2.1124268,0.4355469,4.1578369,1.263916,6.0340576
		l-7.1745605,4.69104c-1.9599609-1.8868408-4.6224365-3.0488281-7.5513916-3.0488281
		c-6.0080566,0-10.895874,4.8878174-10.895874,10.895752s4.8878174,10.895752,10.895874,10.895752
		c6.0079346,0,10.895752-4.8878174,10.895752-10.895752c0-1.3261719-0.2385254-2.5975342-0.6741943-3.7739258l7.1767578-4.6925049
		c0.1433105,0.1557617,0.2895508,0.3095703,0.4401855,0.4602051c2.8221436,2.8221436,6.574585,4.3764648,10.5656738,4.3764648
		c3.0081787,0,5.8804932-0.8834229,8.3214111-2.5267334l9.409668,10.0175781
		c-1.1691895,1.7359619-1.8522949,3.8251953-1.8522949,6.0710449c0,6.0080566,4.8876953,10.895874,10.895752,10.895874
		s10.895752-4.8878174,10.895752-10.895874c0-6.0079346-4.8876953-10.895752-10.895752-10.895752
		c-2.0024414,0-3.880127,0.543457-5.4941406,1.4899902l-9.4108887-10.019043
		c1.9926758-2.5941162,3.0727539-5.75354,3.0727539-9.0793457c0-0.12146-0.0014648-0.2426758-0.0043945-0.3636475
		l8.8740234-1.6884766C2067.859375,1518.4746094,2070.9379883,1520.527832,2074.487793,1520.527832z M2012.3199463,1505.2246094
		c-2.5112305,0-4.5543213-2.0429688-4.5543213-4.5541992c0-2.5111084,2.0430908-4.5541992,4.5543213-4.5541992
		c2.5111084,0,4.5541992,2.0430908,4.5541992,4.5541992
		C2016.8741455,1503.1816406,2014.8310547,1505.2246094,2012.3199463,1505.2246094z M2014.1591797,1542.1434326
		c-3.3225098,0-6.0256348-2.703125-6.0256348-6.0256348c0-3.3226318,2.703125-6.0256348,6.0256348-6.0256348
		s6.0256348,2.7030029,6.0256348,6.0256348C2020.1848145,1539.4403076,2017.4816895,1542.1434326,2014.1591797,1542.1434326z
		 M2039.4753418,1486.6456299c0-3.309082,2.6922607-6.0012207,6.0013428-6.0012207
		c3.30896,0,6.0013428,2.6921387,6.0013428,6.0012207c0,3.3092041-2.6923828,6.0013428-6.0013428,6.0013428
		C2042.1676025,1492.6469727,2039.4753418,1489.954834,2039.4753418,1486.6456299z M2032.491333,1517.5457764
		c0-5.553833,4.5183105-10.0721436,10.0720215-10.0721436c5.553833,0,10.0721436,4.5183105,10.0721436,10.0721436
		c0,5.5537109-4.5183105,10.0721436-10.0721436,10.0721436
		C2037.0096436,1527.6179199,2032.491333,1523.0994873,2032.491333,1517.5457764z M2075.3635254,1546.0499268
		c0,3.3226318-2.703125,6.0256348-6.0256348,6.0256348s-6.0256348-2.7030029-6.0256348-6.0256348
		c0-3.3225098,2.703125-6.0256348,6.0256348-6.0256348S2075.3635254,1542.727417,2075.3635254,1546.0499268z
		 M2074.487793,1507.2849121c2.3083496,0,4.1865234,1.8779297,4.1865234,4.1864014
		c0,2.3083496-1.8781738,4.1862793-4.1865234,4.1862793s-4.1862793-1.8779297-4.1862793-4.1862793
		C2070.3015137,1509.1628418,2072.1794434,1507.2849121,2074.487793,1507.2849121z"/>
	<path id="Regular-L" d="M1449.7900391,1455.720459
		c-35.8985596,0-65,29.1015625-65,65s29.1014404,65,65,65c35.8984375,0,65-29.1015625,65-65
		S1485.6884766,1455.720459,1449.7900391,1455.720459z M1449.7900391,1575.3204346
		c-30.1065674,0-54.5999756-24.4934082-54.5999756-54.5999756s24.4934082-54.5999756,54.5999756-54.5999756
		s54.5999756,24.4934082,54.5999756,54.5999756S1479.8966064,1575.3204346,1449.7900391,1575.3204346z M1482.7521973,1520.7703857
		c5.2644043,0,9.5472412-4.2828369,9.5472412-9.5472412c0-5.2642822-4.2828369-9.5471191-9.5472412-9.5471191
		c-4.9940186,0-9.1040039,3.854248-9.5131836,8.7441406l-9.3463135,1.7784424
		c-0.7767334-2.1208496-2.0119629-4.0654297-3.6566162-5.710083c-2.0036621-2.0037842-4.4525146-3.4000244-7.1231689-4.098999
		l0.5633545-5.9758301c5.6096191-0.7402344,9.9532471-5.5528564,9.9532471-11.3612061
		c0-6.319458-5.1411133-11.4605713-11.4604492-11.4605713c-6.319458,0-11.4605713,5.1411133-11.4605713,11.4605713
		c0,5.0606689,3.2974854,9.3651123,7.8564453,10.8792725l-0.5639648,5.9812012
		c-3.7944336,0.2592773-7.3262939,1.8604736-10.0413818,4.5755615c-0.421875,0.421875-0.815918,0.8641357-1.1832275,1.3234863
		l-9.9279785-5.5396729c0.1971436-0.779541,0.3023682-1.5953369,0.3023682-2.4353027
		c0-5.4781494-4.4569092-9.9349365-9.9350586-9.9349365s-9.9350586,4.4567871-9.9350586,9.9349365
		c0,5.4782715,4.4569092,9.9350586,9.9350586,9.9350586c2.7924805,0,5.3189697-1.1584473,7.1257324-3.0195312l9.927002,5.5391846
		c-0.6063232,1.6887207-0.9223633,3.4875488-0.9223633,5.3349609c0,2.2269287,0.4592285,4.3833008,1.3325195,6.361084
		l-7.5634766,4.9453125c-2.0661621-1.9891357-4.8728027-3.2141113-7.9604492-3.2141113
		c-6.3334961,0-11.4862061,5.1525879-11.4862061,11.486084s5.15271,11.4862061,11.4862061,11.4862061
		s11.486084-5.15271,11.486084-11.4862061c0-1.3979492-0.2513428-2.7381592-0.7106934-3.9783936l7.5655518-4.9467773
		c0.151123,0.1643066,0.3052979,0.326416,0.4639893,0.4851074c2.9752197,2.9752197,6.9309082,4.6136475,11.1383057,4.6136475
		c3.1711426,0,6.1990967-0.9312744,8.7722168-2.6635742l9.9194336,10.5603027
		c-1.2324219,1.8300781-1.9526367,4.0324707-1.9526367,6.4000244c0,6.3334961,5.1525879,11.4862061,11.4862061,11.4862061
		c6.3334961,0,11.4862061-5.15271,11.4862061-11.4862061s-5.15271-11.4862061-11.4862061-11.4862061
		c-2.1109619,0-4.090332,0.572998-5.7918701,1.5708008l-9.9208984-10.5618896
		c2.1008301-2.7347412,3.2393799-6.0653076,3.2393799-9.5714111c0-0.1279297-0.0015869-0.2557373-0.0046387-0.3831787
		l9.3548584-1.7800293C1475.7644043,1518.605957,1479.0100098,1520.7703857,1482.7521973,1520.7703857z M1417.2156982,1504.6380615
		c-2.6472168,0-4.8010254-2.1536865-4.8010254-4.8010254c0-2.6472168,2.1538086-4.8009033,4.8010254-4.8009033
		s4.8010254,2.1536865,4.8010254,4.8009033C1422.0167236,1502.484375,1419.862915,1504.6380615,1417.2156982,1504.6380615z
		 M1419.1546631,1543.557251c-3.5025635,0-6.3521729-2.8496094-6.3521729-6.3521729s2.8496094-6.3520508,6.3521729-6.3520508
		s6.3520508,2.8494873,6.3520508,6.3520508S1422.6572266,1543.557251,1419.1546631,1543.557251z M1445.8425293,1485.0524902
		c0-3.4884033,2.8381348-6.3265381,6.3265381-6.3265381c3.4882812,0,6.326416,2.8381348,6.326416,6.3265381
		s-2.8381348,6.326416-6.326416,6.326416C1448.6806641,1491.3789062,1445.8425293,1488.5408936,1445.8425293,1485.0524902z
		 M1438.4801025,1517.626709c0-5.8546143,4.7631836-10.6177979,10.6177979-10.6177979s10.6177979,4.7631836,10.6177979,10.6177979
		c0,5.8547363-4.7631836,10.6179199-10.6177979,10.6179199S1438.4801025,1523.4814453,1438.4801025,1517.626709z
		 M1483.675293,1547.675415c0,3.5025635-2.8496094,6.3521729-6.3521729,6.3521729s-6.3521729-2.8496094-6.3521729-6.3521729
		s2.8496094-6.3521729,6.3521729-6.3521729S1483.675293,1544.1728516,1483.675293,1547.675415z M1482.7521973,1506.8100586
		c2.4333496,0,4.413208,1.9796143,4.413208,4.4130859s-1.9798584,4.413208-4.413208,4.413208
		c-2.4334717,0-4.413208-1.9797363-4.413208-4.413208S1480.3187256,1506.8100586,1482.7521973,1506.8100586z"/>
	<path id="Semibold-M" d="M2043.2199707,1039.75
		c-28.1665039,0-51,22.8334961-51,51s22.8334961,51,51,51s51-22.8334961,51-51S2071.3864746,1039.75,2043.2199707,1039.75z
		 M2043.2199707,1130.3000488c-21.8079834,0-39.5500488-17.7420654-39.5500488-39.5500488
		s17.7420654-39.5500488,39.5500488-39.5500488c21.8078613,0,39.5500488,17.7420654,39.5500488,39.5500488
		S2065.027832,1130.3000488,2043.2199707,1130.3000488z M2067.1923828,1090.5372314
		c3.8286133,0,6.9433594-3.1147461,6.9433594-6.9434814c0-3.8284912-3.1147461-6.9433594-6.9433594-6.9433594
		c-3.6320801,0-6.6210938,2.8031006-6.9187012,6.3594971l-6.7971191,1.293335
		c-0.5649414-1.5424805-1.4633789-2.956665-2.6594238-4.152832c-1.4572754-1.4572754-3.2382812-2.4727783-5.180542-2.9810791
		l0.40979-4.3459473c4.0795898-0.5384521,7.2385254-4.0384521,7.2385254-8.2628174
		c0-4.5958252-3.7390137-8.3348389-8.3348389-8.3348389s-8.3348389,3.7390137-8.3348389,8.3348389
		c0,3.680542,2.3980713,6.8110352,5.7137451,7.9123535l-0.4101562,4.3498535
		c-2.7595215,0.1885986-5.328125,1.3530273-7.3027344,3.3276367c-0.3068848,0.3068848-0.5935059,0.62854-0.8605957,0.9626465
		l-7.2203369-4.0289307c0.1434326-0.5668945,0.2198486-1.1601562,0.2198486-1.7711182
		c0-3.9841309-3.2412109-7.2254639-7.2254639-7.2254639c-3.9841309,0-7.2253418,3.241333-7.2253418,7.2254639
		s3.2412109,7.2254639,7.2253418,7.2254639c2.0308838,0,3.8684082-0.8425293,5.182373-2.1959229l7.2196045,4.0284424
		c-0.440918,1.2281494-0.6707764,2.536377-0.6707764,3.8800049c0,1.6195068,0.3339844,3.1877441,0.9691162,4.6262207
		l-5.5006104,3.5965576c-1.5026855-1.4466553-3.5439453-2.3376465-5.7895508-2.3376465
		c-4.6062012,0-8.3535156,3.7474365-8.3535156,8.3536377s3.7473145,8.3535156,8.3535156,8.3535156
		s8.3535156-3.7473145,8.3535156-8.3535156c0-1.0167236-0.1827393-1.9914551-0.5168457-2.8934326l5.5021973-3.5976562
		c0.1099854,0.1195068,0.2220459,0.2374268,0.3375244,0.3529053c2.1636963,2.1636963,5.0405273,3.3553467,8.1004639,3.3553467
		c2.3063965,0,4.5084229-0.6772461,6.3798828-1.9371338l7.2141113,7.6801758
		c-0.8964844,1.3309326-1.420166,2.9326172-1.420166,4.654541c0,4.6062012,3.7473145,8.3535156,8.3535156,8.3535156
		s8.3537598-3.7473145,8.3537598-8.3535156s-3.7475586-8.3536377-8.3537598-8.3536377
		c-1.5351562,0-2.9746094,0.416748-4.2121582,1.1424561l-7.2150879-7.6813965
		c1.527832-1.9888916,2.3557129-4.4111328,2.3557129-6.9609375c0-0.0931396-0.0009766-0.1860352-0.0031738-0.2788086
		l6.8034668-1.2945557C2062.1103516,1088.9630127,2064.4707031,1090.5372314,2067.1923828,1090.5372314z M2019.529541,1078.8046875
		c-1.9251709,0-3.4915771-1.5664062-3.4915771-3.4916992c0-1.9251709,1.5664062-3.4915771,3.4915771-3.4915771
		c1.925293,0,3.4916992,1.5664062,3.4916992,3.4915771
		C2023.0212402,1077.2382812,2021.454834,1078.8046875,2019.529541,1078.8046875z M2020.9396973,1107.109375
		c-2.5472412,0-4.619751-2.0723877-4.619751-4.6196289c0-2.5473633,2.0725098-4.619751,4.619751-4.619751
		c2.5473633,0,4.619751,2.0723877,4.619751,4.619751C2025.5594482,1105.0369873,2023.4870605,1107.109375,2020.9396973,1107.109375z
		 M2040.3491211,1064.5605469c0-2.5369873,2.0639648-4.6009521,4.6009521-4.6009521
		c2.5371094,0,4.6011963,2.0639648,4.6011963,4.6009521c0,2.5371094-2.0640869,4.6010742-4.6011963,4.6010742
		C2042.4130859,1069.1616211,2040.3491211,1067.0976562,2040.3491211,1064.5605469z M2034.9945068,1088.2509766
		c0-4.2579346,3.4641113-7.7220459,7.7220459-7.7220459s7.722168,3.4641113,7.722168,7.7220459
		s-3.4642334,7.7220459-7.722168,7.7220459S2034.9945068,1092.5089111,2034.9945068,1088.2509766z M2067.8637695,1110.1044922
		c0,2.5473633-2.0725098,4.619751-4.619873,4.619751s-4.6196289-2.0723877-4.6196289-4.619751
		s2.0722656-4.619751,4.6196289-4.619751S2067.8637695,1107.5571289,2067.8637695,1110.1044922z M2067.1923828,1080.3842773
		c1.7697754,0,3.2094727,1.4396973,3.2094727,3.2094727s-1.4396973,3.2095947-3.2094727,3.2095947
		s-3.2097168-1.4398193-3.2097168-3.2095947S2065.4226074,1080.3842773,2067.1923828,1080.3842773z"/>
	<path id="Semibold-S" d="M2043.2199707,619.970459
		c-22.5332031,0-40.8000488,18.2667847-40.8000488,40.7999878c0,22.5332642,18.2668457,40.8000488,40.8000488,40.8000488
		s40.8000488-18.2667847,40.8000488-40.8000488C2084.0200195,638.2372437,2065.7531738,619.970459,2043.2199707,619.970459z
		 M2043.2199707,692.4504395c-17.4683838,0-31.6799316-14.2116089-31.6799316-31.6799927
		c0-17.4683228,14.2115479-31.6799316,31.6799316-31.6799316c17.4682617,0,31.6799316,14.2116089,31.6799316,31.6799316
		C2074.8999023,678.2388306,2060.6882324,692.4504395,2043.2199707,692.4504395z M2062.6560059,660.6347046
		c3.104248,0,5.6296387-2.5253906,5.6296387-5.6295776c0-3.104126-2.5253906-5.6294556-5.6296387-5.6294556
		c-2.9445801,0-5.3681641,2.272644-5.609375,5.1560059l-5.5109863,1.048645
		c-0.4580078-1.2505493-1.1862793-2.3972168-2.1560059-3.3670044c-1.1816406-1.1814575-2.6256104-2.0048218-4.2003174-2.4169312
		l0.3321533-3.5236206c3.3076172-0.4365234,5.8688965-3.274231,5.8688965-6.6992188
		c0-3.7261963-3.0314941-6.7576904-6.7576904-6.7576904s-6.7576904,3.0314941-6.7576904,6.7576904
		c0,2.9840698,1.9443359,5.5222168,4.6325684,6.4150391l-0.3325195,3.5267944
		c-2.2374268,0.1528931-4.3199463,1.0970459-5.9208984,2.697937c-0.2487793,0.2488403-0.4810791,0.5096436-0.6977539,0.7804565
		l-5.8540039-3.2664795c0.1162109-0.4596558,0.1783447-0.9406738,0.1783447-1.4359741
		c0-3.2302246-2.6280518-5.8581543-5.8582764-5.8581543s-5.8581543,2.6279297-5.8581543,5.8581543
		s2.6279297,5.8582153,5.8581543,5.8582153c1.6466064,0,3.1363525-0.6831055,4.2016602-1.7804565l5.8535156,3.2661743
		c-0.3574219,0.9957275-0.5438232,2.0563965-0.5438232,3.145752c0,1.3131104,0.270752,2.5845947,0.7856445,3.7507935
		l-4.4597168,2.9160156c-1.2183838-1.1728516-2.873291-1.8952026-4.6939697-1.8952026
		c-3.7344971,0-6.7728271,3.038269-6.7728271,6.7727661c0,3.7346191,3.0383301,6.7728882,6.7728271,6.7728882
		c3.7346191,0,6.7728271-3.038269,6.7728271-6.7728882c0-0.8242798-0.1481934-1.614563-0.4190674-2.3458252l4.4610596-2.9168701
		c0.0891113,0.0968628,0.1799316,0.1924438,0.2735596,0.2860718c1.7542725,1.7542725,4.086792,2.7203979,6.567749,2.7203979
		c1.869873,0,3.6552734-0.5490723,5.1724854-1.5705566l5.8491211,6.2269287
		c-0.7268066,1.0790405-1.1513672,2.3776855-1.1513672,3.7737427c0,3.7345581,3.0380859,6.7728271,6.7727051,6.7728271
		s6.7729492-3.038269,6.7729492-6.7728271c0-3.7346191-3.0383301-6.7728882-6.7729492-6.7728882
		c-1.2446289,0-2.4118652,0.3378906-3.4150391,0.9262085l-5.8498535-6.2277832
		c1.2385254-1.6125488,1.9099121-3.576416,1.9099121-5.6437988c0-0.0754395-0.0009766-0.1508179-0.0026855-0.2259521
		l5.5161133-1.0496216C2058.5358887,659.3583984,2060.4494629,660.6347046,2062.6560059,660.6347046z M2024.0124512,651.1222534
		c-1.5609131,0-2.8308105-1.2699585-2.8308105-2.8309326c0-1.5609131,1.2698975-2.8308716,2.8308105-2.8308716
		c1.5610352,0,2.8309326,1.2699585,2.8309326,2.8308716
		C2026.8433838,649.8522949,2025.5734863,651.1222534,2024.0124512,651.1222534z M2025.1557617,674.0709839
		c-2.0653076,0-3.7454834-1.6802979-3.7454834-3.7456055s1.6801758-3.7454834,3.7454834-3.7454834
		s3.7454834,1.6801758,3.7454834,3.7454834S2027.2210693,674.0709839,2025.1557617,674.0709839z M2040.892334,639.5735474
		c0-2.0569458,1.6734619-3.7304077,3.7303467-3.7304077c2.0570068,0,3.7303467,1.6734619,3.7303467,3.7304077
		s-1.6733398,3.7304077-3.7303467,3.7304077C2042.5657959,643.3039551,2040.892334,641.6304932,2040.892334,639.5735474z
		 M2036.5510254,658.7810059c0-3.4522095,2.8085938-6.2608032,6.2608643-6.2608032
		c3.4521484,0,6.2608643,2.8085938,6.2608643,6.2608032c0,3.4522705-2.8087158,6.2608643-6.2608643,6.2608643
		C2039.3596191,665.0418701,2036.5510254,662.2332764,2036.5510254,658.7810059z M2063.2004395,676.4992676
		c0,2.0653076-1.6801758,3.7455444-3.7456055,3.7455444c-2.0651855,0-3.7456055-1.6802368-3.7456055-3.7455444
		s1.6804199-3.7455444,3.7456055-3.7455444C2061.5202637,672.7537231,2063.2004395,674.43396,2063.2004395,676.4992676z
		 M2062.6560059,652.4029541c1.4350586,0,2.6022949,1.1672974,2.6022949,2.6021729s-1.1672363,2.6022949-2.6022949,2.6022949
		c-1.4348145,0-2.6020508-1.1674194-2.6020508-2.6022949S2061.2211914,652.4029541,2062.6560059,652.4029541z"/>
	<path id="Regular-S" d="M1449.7900391,620.72052
		c-22.0914307,0-40,17.9086304-40,40s17.9085693,40,40,40s40-17.9086304,40-40S1471.8814697,620.72052,1449.7900391,620.72052z
		 M1449.7900391,694.3204956c-18.5270996,0-33.5999756-15.072876-33.5999756-33.5999756s15.072876-33.5999756,33.5999756-33.5999756
		s33.5999756,15.072876,33.5999756,33.5999756S1468.3171387,694.3204956,1449.7900391,694.3204956z M1470.0744629,660.7512817
		c3.239624,0,5.8751221-2.6356201,5.8751221-5.8752441s-2.635498-5.8751831-5.8751221-5.8751831
		c-3.0732422,0-5.6025391,2.3718262-5.854248,5.3810425l-5.7515869,1.0943604
		c-0.4780273-1.3050537-1.2381592-2.50177-2.2502441-3.513855c-1.2330322-1.2330933-2.7399902-2.0923462-4.3835449-2.5224609
		l0.3468018-3.6774292c3.4520264-0.4555054,6.125-3.4171143,6.125-6.9915161c0-3.888855-3.1638184-7.0526123-7.0526123-7.0526123
		s-7.0526123,3.1637573-7.0526123,7.0526123c0,3.1142578,2.0291748,5.7631836,4.8347168,6.6949463l-0.3470459,3.6807251
		c-2.335083,0.1596069-4.5084229,1.1448975-6.1793213,2.8157349c-0.2596436,0.2596436-0.5020752,0.5317993-0.7281494,0.8144531
		l-6.1094971-3.4089966c0.1213379-0.4797363,0.1860352-0.9817505,0.1860352-1.4986572
		c0-3.3711548-2.7426758-6.1138306-6.1138916-6.1138306s-6.1137695,2.7426758-6.1137695,6.1138306
		c0,3.3712158,2.7425537,6.1138916,6.1137695,6.1138916c1.7185059,0,3.2733154-0.7129517,4.3850098-1.8581543l6.1090088,3.4086914
		c-0.3730469,1.0391846-0.567627,2.1461792-0.567627,3.2830811c0,1.3704224,0.2825928,2.6973267,0.8199463,3.9144897
		l-4.6542969,3.0432129c-1.2714844-1.2240601-2.9986572-1.9779053-4.8988037-1.9779053
		c-3.897583,0-7.0684814,3.1708984-7.0684814,7.0683594c0,3.897583,3.1708984,7.0684814,7.0684814,7.0684814
		c3.8974609,0,7.0683594-3.1708984,7.0683594-7.0684814c0-0.8602905-0.1546631-1.6849976-0.4373779-2.4482422l4.6557617-3.0441284
		c0.0930176,0.1010742,0.1878662,0.2008667,0.2855225,0.2985229c1.8309326,1.8308716,4.2651367,2.8391724,6.8543701,2.8391724
		c1.951416,0,3.8148193-0.5730591,5.3981934-1.6390991l6.1043701,6.4986572
		c-0.7585449,1.1261597-1.2016602,2.4815063-1.2016602,3.9384155c0,3.897583,3.1708984,7.0684204,7.0683594,7.0684204
		c3.897583,0,7.0684814-3.1708374,7.0684814-7.0684204c0-3.897522-3.1708984-7.0684204-7.0684814-7.0684204
		c-1.2989502,0-2.5170898,0.3526001-3.564209,0.9666138l-6.1051025-6.4995728
		c1.2928467-1.6829224,1.9935303-3.7325439,1.9935303-5.8900757c0-0.0787964-0.0010986-0.1574097-0.0029297-0.2359009
		l5.7568359-1.0953369C1465.774292,659.4192505,1467.7714844,660.7512817,1470.0744629,660.7512817z M1429.7442627,650.8236694
		c-1.6290283,0-2.9544678-1.3253784-2.9544678-2.9544678c0-1.6290283,1.3254395-2.9544678,2.9544678-2.9544678
		c1.6291504,0,2.9544678,1.3254395,2.9544678,2.9544678C1432.6987305,649.498291,1431.3734131,650.8236694,1429.7442627,650.8236694
		z M1430.9375,674.7739258c-2.1553955,0-3.9090576-1.7536011-3.9090576-3.9090576
		c0-2.1553955,1.7536621-3.9089355,3.9090576-3.9089355s3.9089355,1.75354,3.9089355,3.9089355
		C1434.8464355,673.0203247,1433.0928955,674.7739258,1430.9375,674.7739258z M1447.3608398,638.7709961
		c0-2.1467285,1.74646-3.8932495,3.8931885-3.8932495s3.8931885,1.746521,3.8931885,3.8932495
		c0,2.1466675-1.74646,3.8931885-3.8931885,3.8931885S1447.3608398,640.9176636,1447.3608398,638.7709961z
		 M1442.8300781,658.8167114c0-3.6029053,2.9311523-6.5340576,6.5340576-6.5340576
		c3.6027832,0,6.5340576,2.9311523,6.5340576,6.5340576s-2.9312744,6.5340576-6.5340576,6.5340576
		C1445.7612305,665.350769,1442.8300781,662.4196167,1442.8300781,658.8167114z M1470.6424561,677.3081665
		c0,2.1554565-1.75354,3.9090576-3.9090576,3.9090576c-2.1553955,0-3.9089355-1.7536011-3.9089355-3.9090576
		c0-2.1553955,1.75354-3.9089966,3.9089355-3.9089966C1468.888916,673.3991699,1470.6424561,675.152771,1470.6424561,677.3081665z
		 M1470.0744629,652.1602173c1.4974365,0,2.7158203,1.2183228,2.7158203,2.7158203s-1.2183838,2.7158203-2.7158203,2.7158203
		c-1.4975586,0-2.7158203-1.2183228-2.7158203-2.7158203S1468.5769043,652.1602173,1470.0744629,652.1602173z"/>
	<path id="Regular-M" d="M1449.7900391,1040.6999512
		c-27.6142578,0-50,22.3857422-50,50s22.3857422,50,50,50s50-22.3857422,50-50S1477.4042969,1040.6999512,1449.7900391,1040.6999512
		z M1449.7900391,1132.6999512c-23.1589355,0-42-18.8411865-42-42s18.8410645-42,42-42c23.1588135,0,42,18.8411865,42,42
		S1472.9488525,1132.6999512,1449.7900391,1132.6999512z M1475.1455078,1090.7384033
		c4.0495605,0,7.3439941-3.2945557,7.3439941-7.3441162c0-4.0494385-3.2944336-7.3439941-7.3439941-7.3439941
		c-3.8415527,0-7.0030518,2.9648438-7.3178711,6.7264404l-7.1893311,1.3679199
		c-0.5975342-1.6313477-1.5477295-3.1273193-2.8127441-4.392334c-1.5413818-1.5413818-3.4251709-2.6154785-5.4794922-3.1530762
		l0.4333496-4.5968018c4.3150635-0.569458,7.6563721-4.2713623,7.6563721-8.7393799
		c0-4.861084-3.9547119-8.8157959-8.8157959-8.8157959c-4.8609619,0-8.8157959,3.9547119-8.8157959,8.8157959
		c0,3.8928223,2.536499,7.2039795,6.043457,8.3686523l-0.4338379,4.6009521
		c-2.9188232,0.1994629-5.6356201,1.4311523-7.7241211,3.5196533c-0.324585,0.324585-0.6276855,0.6647949-0.9101562,1.0180664
		l-7.6369629-4.2612305c0.1517334-0.5997314,0.232666-1.2271729,0.232666-1.873291
		c0-4.2139893-3.4283447-7.642334-7.642334-7.642334s-7.642334,3.4283447-7.642334,7.642334s3.4283447,7.642334,7.642334,7.642334
		c2.1479492,0,4.0915527-0.8912354,5.4812012-2.3227539l7.6362305,4.2608643
		c-0.4664307,1.2989502-0.7095947,2.6827393-0.7095947,4.1038818c0,1.7130127,0.3532715,3.3717041,1.0250244,4.8930664
		l-5.8179932,3.8040771c-1.5893555-1.5300293-3.748291-2.4724121-6.1234131-2.4724121
		c-4.8719482,0-8.8355713,3.963623-8.8355713,8.8354492c0,4.8719482,3.963623,8.8355713,8.8355713,8.8355713
		c4.8718262,0,8.8354492-3.963623,8.8354492-8.8355713c0-1.0753174-0.1933594-2.1063232-0.5466309-3.0603027l5.8195801-3.8051758
		c0.116333,0.1263428,0.2348633,0.2510986,0.3569336,0.3731689c2.2885742,2.2885742,5.3314209,3.5489502,8.5678711,3.5489502
		c2.4394531,0,4.7685547-0.7163086,6.7479248-2.0488281l7.6303711,8.123291
		c-0.9481201,1.4077148-1.5020752,3.1018066-1.5020752,4.9230957c0,4.8719482,3.963623,8.8354492,8.8355713,8.8354492
		s8.8354492-3.963501,8.8354492-8.8354492s-3.963501-8.8355713-8.8354492-8.8355713
		c-1.6239014,0-3.1464844,0.4407959-4.4553223,1.208252l-7.6314697-8.1245117
		c1.6159668-2.1035156,2.4918213-4.6656494,2.4918213-7.3625488c0-0.0985107-0.0012207-0.1967773-0.00354-0.2947998
		l7.1960449-1.3692627C1469.7702637,1089.0733643,1472.2669678,1090.7384033,1475.1455078,1090.7384033z M1424.7329102,1078.3288574
		c-2.036377,0-3.6931152-1.6567383-3.6931152-3.6929932c0-2.036377,1.6567383-3.6931152,3.6931152-3.6931152
		c2.0362549,0,3.6929932,1.6567383,3.6929932,3.6931152
		C1428.4259033,1076.6721191,1426.769165,1078.3288574,1424.7329102,1078.3288574z M1426.2243652,1108.2667236
		c-2.6943359,0-4.8862305-2.1920166-4.8862305-4.8863525c0-2.6942139,2.1918945-4.8862305,4.8862305-4.8862305
		s4.8862305,2.1920166,4.8862305,4.8862305C1431.1105957,1106.074707,1428.9187012,1108.2667236,1426.2243652,1108.2667236z
		 M1446.75354,1063.2630615c0-2.6834717,2.1831055-4.8665771,4.8664551-4.8665771s4.8665771,2.1831055,4.8665771,4.8665771
		c0,2.6833496-2.1832275,4.8664551-4.8665771,4.8664551S1446.75354,1065.9464111,1446.75354,1063.2630615z
		 M1441.0900879,1088.3201904c0-4.5036621,3.6639404-8.1676025,8.1674805-8.1676025
		c4.5036621,0,8.1676025,3.6639404,8.1676025,8.1676025s-3.6639404,8.1676025-8.1676025,8.1676025
		C1444.7540283,1096.487793,1441.0900879,1092.8238525,1441.0900879,1088.3201904z M1475.8555908,1111.4345703
		c0,2.6942139-2.1920166,4.8862305-4.8862305,4.8862305c-2.6943359,0-4.8863525-2.1920166-4.8863525-4.8862305
		c0-2.6943359,2.1920166-4.8863525,4.8863525-4.8863525
		C1473.6635742,1106.5482178,1475.8555908,1108.7402344,1475.8555908,1111.4345703z M1475.1455078,1079.9996338
		c1.8718262,0,3.3947754,1.5228271,3.3947754,3.3946533c0,1.8719482-1.5229492,3.3947754-3.3947754,3.3947754
		s-3.3947754-1.5228271-3.3947754-3.3947754C1471.7507324,1081.5224609,1473.2736816,1079.9996338,1475.1455078,1079.9996338z"/>
</g>
</svg>
