<?xml version="1.0" encoding="UTF-8"?>
<!--Generator: Apple Native CoreSVG 232.5-->
<!DOCTYPE svg
PUBLIC "-//W3C//DTD SVG 1.1//EN"
       "http://www.w3.org/Graphics/SVG/1.1/DTD/svg11.dtd">
<svg version="1.1" xmlns="http://www.w3.org/2000/svg" xmlns:xlink="http://www.w3.org/1999/xlink" width="3300" height="2200">
 <!--glyph: "", point size: 100.0, font version: "19.0d8e1", template writer version: "128"-->
 <style>.monochrome-0 {-sfsymbols-motion-group:0}

.multicolor-0:tintColor {-sfsymbols-motion-group:0}

.hierarchical-0:primary {-sfsymbols-motion-group:0}

.SFSymbolsPreviewWireframe {fill:none;opacity:1.0;stroke:black;stroke-width:0.5}
</style>
 <g id="Notes">
  <rect height="2200" id="artboard" style="fill:white;opacity:1" width="3300" x="0" y="0"/>
  <line style="fill:none;stroke:black;opacity:1;stroke-width:0.5;" x1="263" x2="3036" y1="292" y2="292"/>
  <text style="stroke:none;fill:black;font-family:sans-serif;font-size:13;font-weight:bold;" transform="matrix(1 0 0 1 263 322)">Weight/Scale Variations</text>
  <text style="stroke:none;fill:black;font-family:sans-serif;font-size:13;text-anchor:middle;" transform="matrix(1 0 0 1 559.711 322)">Ultralight</text>
  <text style="stroke:none;fill:black;font-family:sans-serif;font-size:13;text-anchor:middle;" transform="matrix(1 0 0 1 856.422 322)">Thin</text>
  <text style="stroke:none;fill:black;font-family:sans-serif;font-size:13;text-anchor:middle;" transform="matrix(1 0 0 1 1153.13 322)">Light</text>
  <text style="stroke:none;fill:black;font-family:sans-serif;font-size:13;text-anchor:middle;" transform="matrix(1 0 0 1 1449.84 322)">Regular</text>
  <text style="stroke:none;fill:black;font-family:sans-serif;font-size:13;text-anchor:middle;" transform="matrix(1 0 0 1 1746.56 322)">Medium</text>
  <text style="stroke:none;fill:black;font-family:sans-serif;font-size:13;text-anchor:middle;" transform="matrix(1 0 0 1 2043.27 322)">Semibold</text>
  <text style="stroke:none;fill:black;font-family:sans-serif;font-size:13;text-anchor:middle;" transform="matrix(1 0 0 1 2339.98 322)">Bold</text>
  <text style="stroke:none;fill:black;font-family:sans-serif;font-size:13;text-anchor:middle;" transform="matrix(1 0 0 1 2636.69 322)">Heavy</text>
  <text style="stroke:none;fill:black;font-family:sans-serif;font-size:13;text-anchor:middle;" transform="matrix(1 0 0 1 2933.4 322)">Black</text>
  <line style="fill:none;stroke:black;opacity:1;stroke-width:0.5;" x1="263" x2="3036" y1="1903" y2="1903"/>
  <g transform="matrix(0.2 0 0 0.2 263 1933)">
   <path d="m46.2402 4.15039c21.5332 0 39.4531-17.8711 39.4531-39.4043s-17.9688-39.4043-39.502-39.4043c-21.4844 0-39.3555 17.8711-39.3555 39.4043s17.9199 39.4043 39.4043 39.4043Zm0-7.42188c-17.7246 0-31.8848-14.209-31.8848-31.9824s14.1113-31.9824 31.8359-31.9824c17.7734 0 32.0312 14.209 32.0312 31.9824s-14.209 31.9824-31.9824 31.9824Zm-17.9688-31.9824c0 2.14844 1.51367 3.61328 3.75977 3.61328h10.498v10.5957c0 2.19727 1.46484 3.71094 3.61328 3.71094 2.24609 0 3.71094-1.51367 3.71094-3.71094v-10.5957h10.5957c2.19727 0 3.71094-1.46484 3.71094-3.61328 0-2.19727-1.51367-3.71094-3.71094-3.71094h-10.5957v-10.5469c0-2.24609-1.46484-3.75977-3.71094-3.75977-2.14844 0-3.61328 1.51367-3.61328 3.75977v10.5469h-10.498c-2.24609 0-3.75977 1.51367-3.75977 3.71094Z"/>
  </g>
  <g transform="matrix(0.2 0 0 0.2 281.506 1933)">
   <path d="m58.5449 14.5508c27.2461 0 49.8047-22.6074 49.8047-49.8047 0-27.2461-22.6074-49.8047-49.8535-49.8047-27.1973 0-49.7559 22.5586-49.7559 49.8047 0 27.1973 22.6074 49.8047 49.8047 49.8047Zm0-8.30078c-23.0469 0-41.4551-18.457-41.4551-41.5039s18.3594-41.5039 41.4062-41.5039 41.5527 18.457 41.5527 41.5039-18.457 41.5039-41.5039 41.5039Zm-22.6562-41.5039c0 2.39258 1.66016 4.00391 4.15039 4.00391h14.3555v14.4043c0 2.44141 1.66016 4.15039 4.05273 4.15039 2.44141 0 4.15039-1.66016 4.15039-4.15039v-14.4043h14.4043c2.44141 0 4.15039-1.61133 4.15039-4.00391 0-2.44141-1.70898-4.15039-4.15039-4.15039h-14.4043v-14.3555c0-2.49023-1.70898-4.19922-4.15039-4.19922-2.39258 0-4.05273 1.70898-4.05273 4.19922v14.3555h-14.3555c-2.49023 0-4.15039 1.70898-4.15039 4.15039Z"/>
  </g>
  <g transform="matrix(0.2 0 0 0.2 304.924 1933)">
   <path d="m74.8535 28.3203c34.8145 0 63.623-28.8086 63.623-63.5742 0-34.8145-28.8574-63.623-63.6719-63.623-34.7656 0-63.5254 28.8086-63.5254 63.623 0 34.7656 28.8086 63.5742 63.5742 63.5742Zm0-9.08203c-30.1758 0-54.4434-24.3164-54.4434-54.4922 0-30.2246 24.2188-54.4922 54.3945-54.4922 30.2246 0 54.541 24.2676 54.541 54.4922 0 30.1758-24.2676 54.4922-54.4922 54.4922Zm-28.8574-54.4922c0 2.58789 1.85547 4.39453 4.58984 4.39453h19.7266v19.7754c0 2.68555 1.85547 4.58984 4.44336 4.58984 2.68555 0 4.54102-1.85547 4.54102-4.58984v-19.7754h19.7754c2.68555 0 4.58984-1.80664 4.58984-4.39453 0-2.73438-1.85547-4.58984-4.58984-4.58984h-19.7754v-19.7266c0-2.73438-1.85547-4.63867-4.54102-4.63867-2.58789 0-4.44336 1.9043-4.44336 4.63867v19.7266h-19.7266c-2.73438 0-4.58984 1.85547-4.58984 4.58984Z"/>
  </g>
  <text style="stroke:none;fill:black;font-family:sans-serif;font-size:13;font-weight:bold;" transform="matrix(1 0 0 1 263 1953)">Design Variations</text>
  <text style="stroke:none;fill:black;font-family:sans-serif;font-size:13;" transform="matrix(1 0 0 1 263 1971)">Symbols are supported in up to nine weights and three scales.</text>
  <text style="stroke:none;fill:black;font-family:sans-serif;font-size:13;" transform="matrix(1 0 0 1 263 1989)">For optimal layout with text and other symbols, vertically align</text>
  <text style="stroke:none;fill:black;font-family:sans-serif;font-size:13;" transform="matrix(1 0 0 1 263 2007)">symbols with the adjacent text.</text>
  <line style="fill:none;stroke:#00AEEF;stroke-width:0.5;opacity:1.0;" x1="776" x2="776" y1="1919" y2="1933"/>
  <g transform="matrix(0.2 0 0 0.2 776 1933)">
   <path d="m16.5527 0.78125c2.58789 0 3.85742-0.976562 4.78516-3.71094l6.29883-17.2363h28.8086l6.29883 17.2363c0.927734 2.73438 2.19727 3.71094 4.73633 3.71094 2.58789 0 4.24805-1.5625 4.24805-4.00391 0-0.830078-0.146484-1.61133-0.537109-2.63672l-22.9004-60.9863c-1.12305-2.97852-3.125-4.49219-6.25-4.49219-3.02734 0-5.07812 1.46484-6.15234 4.44336l-22.9004 61.084c-0.390625 1.02539-0.537109 1.80664-0.537109 2.63672 0 2.44141 1.5625 3.95508 4.10156 3.95508Zm13.4766-28.3691 11.8652-32.8613h0.244141l11.8652 32.8613Z"/>
  </g>
  <line style="fill:none;stroke:#00AEEF;stroke-width:0.5;opacity:1.0;" x1="792.836" x2="792.836" y1="1919" y2="1933"/>
  <text style="stroke:none;fill:black;font-family:sans-serif;font-size:13;font-weight:bold;" transform="matrix(1 0 0 1 776 1953)">Margins</text>
  <text style="stroke:none;fill:black;font-family:sans-serif;font-size:13;" transform="matrix(1 0 0 1 776 1971)">Leading and trailing margins on the left and right side of each symbol</text>
  <text style="stroke:none;fill:black;font-family:sans-serif;font-size:13;" transform="matrix(1 0 0 1 776 1989)">can be adjusted by modifying the x-location of the margin guidelines.</text>
  <text style="stroke:none;fill:black;font-family:sans-serif;font-size:13;" transform="matrix(1 0 0 1 776 2007)">Modifications are automatically applied proportionally to all</text>
  <text style="stroke:none;fill:black;font-family:sans-serif;font-size:13;" transform="matrix(1 0 0 1 776 2025)">scales and weights.</text>
  <g transform="matrix(0.2 0 0 0.2 1289 1933)">
   <path d="m14.209 9.32617 8.49609 8.54492c4.29688 4.3457 9.22852 4.05273 13.8672-1.07422l53.4668-58.9355-4.83398-4.88281-53.0762 58.3984c-1.75781 2.00195-3.41797 2.49023-5.76172 0.146484l-5.85938-5.81055c-2.34375-2.29492-1.80664-4.00391 0.195312-5.81055l57.373-54.0039-4.88281-4.83398-57.959 54.4434c-4.93164 4.58984-5.32227 9.47266-1.02539 13.8184Zm32.0801-90.9668c-2.09961 2.05078-2.24609 4.93164-1.07422 6.88477 1.17188 1.80664 3.4668 2.97852 6.68945 2.14844 7.32422-1.70898 14.9414-2.00195 22.0703 2.68555l-2.92969 7.27539c-1.70898 4.15039-0.830078 7.08008 1.85547 9.81445l11.4746 11.5723c2.44141 2.44141 4.49219 2.53906 7.32422 2.05078l5.32227-0.976562 3.32031 3.36914-0.195312 2.7832c-0.195312 2.49023 0.439453 4.39453 2.88086 6.78711l3.80859 3.71094c2.39258 2.39258 5.46875 2.53906 7.8125 0.195312l14.5508-14.5996c2.34375-2.34375 2.24609-5.32227-0.146484-7.71484l-3.85742-3.80859c-2.39258-2.39258-4.24805-3.17383-6.64062-2.97852l-2.88086 0.244141-3.22266-3.17383 1.2207-5.61523c0.634766-2.83203-0.146484-5.0293-3.07617-7.95898l-10.9863-10.9375c-16.6992-16.6016-38.8672-16.2109-53.3203-1.75781Zm7.4707 1.85547c12.1582-8.88672 28.6133-7.37305 39.7461 3.75977l12.1582 12.0605c1.17188 1.17188 1.36719 2.09961 1.02539 3.80859l-1.61133 7.42188 7.51953 7.42188 4.93164-0.292969c1.26953-0.0488281 1.66016 0.0488281 2.63672 1.02539l2.88086 2.88086-12.207 12.207-2.88086-2.88086c-0.976562-0.976562-1.12305-1.36719-1.07422-2.68555l0.341797-4.88281-7.4707-7.42188-7.61719 1.26953c-1.61133 0.341797-2.34375 0.195312-3.56445-0.976562l-10.0098-10.0098c-1.26953-1.17188-1.41602-2.00195-0.634766-3.85742l4.39453-10.4492c-7.8125-7.27539-17.9688-10.4004-28.125-7.42188-0.78125 0.195312-1.07422-0.439453-0.439453-0.976562Z"/>
  </g>
  <text style="stroke:none;fill:black;font-family:sans-serif;font-size:13;font-weight:bold;" transform="matrix(1 0 0 1 1289 1953)">Exporting</text>
  <text style="stroke:none;fill:black;font-family:sans-serif;font-size:13;" transform="matrix(1 0 0 1 1289 1971)">Symbols should be outlined when exporting to ensure the</text>
  <text style="stroke:none;fill:black;font-family:sans-serif;font-size:13;" transform="matrix(1 0 0 1 1289 1989)">design is preserved when submitting to Xcode.</text>
  <text id="template-version" style="stroke:none;fill:black;font-family:sans-serif;font-size:13;text-anchor:end;" transform="matrix(1 0 0 1 3036 1933)">Template v.5.0</text>
  <text style="stroke:none;fill:black;font-family:sans-serif;font-size:13;text-anchor:end;" transform="matrix(1 0 0 1 3036 1951)">Requires Xcode 15 or greater</text>
  <text id="descriptive-name" style="stroke:none;fill:black;font-family:sans-serif;font-size:13;text-anchor:end;" transform="matrix(1 0 0 1 3036 1969)">Generated from asset.xtz</text>
  <text style="stroke:none;fill:black;font-family:sans-serif;font-size:13;text-anchor:end;" transform="matrix(1 0 0 1 3036 1987)">Typeset at 100.0 points</text>
  <text style="stroke:none;fill:black;font-family:sans-serif;font-size:13;" transform="matrix(1 0 0 1 263 726)">Small</text>
  <text style="stroke:none;fill:black;font-family:sans-serif;font-size:13;" transform="matrix(1 0 0 1 263 1156)">Medium</text>
  <text style="stroke:none;fill:black;font-family:sans-serif;font-size:13;" transform="matrix(1 0 0 1 263 1586)">Large</text>
 </g>
 <g id="Guides">
  <g id="H-reference" style="fill:#27AAE1;stroke:none;" transform="matrix(1 0 0 1 339 696)">
   <path d="M0.993654 0L3.63775 0L29.3281-67.1323L30.0303-67.1323L30.0303-70.459L28.1226-70.459ZM11.6885-24.4799L46.9815-24.4799L46.2315-26.7285L12.4385-26.7285ZM55.1196 0L57.7637 0L30.6382-70.459L29.4326-70.459L29.4326-67.1323Z"/>
  </g>
  <line id="Baseline-S" style="fill:none;stroke:#27AAE1;opacity:1;stroke-width:0.5;" x1="263" x2="3036" y1="696" y2="696"/>
  <line id="Capline-S" style="fill:none;stroke:#27AAE1;opacity:1;stroke-width:0.5;" x1="263" x2="3036" y1="625.541" y2="625.541"/>
  <g id="H-reference" style="fill:#27AAE1;stroke:none;" transform="matrix(1 0 0 1 339 1126)">
   <path d="M0.993654 0L3.63775 0L29.3281-67.1323L30.0303-67.1323L30.0303-70.459L28.1226-70.459ZM11.6885-24.4799L46.9815-24.4799L46.2315-26.7285L12.4385-26.7285ZM55.1196 0L57.7637 0L30.6382-70.459L29.4326-70.459L29.4326-67.1323Z"/>
  </g>
  <line id="Baseline-M" style="fill:none;stroke:#27AAE1;opacity:1;stroke-width:0.5;" x1="263" x2="3036" y1="1126" y2="1126"/>
  <line id="Capline-M" style="fill:none;stroke:#27AAE1;opacity:1;stroke-width:0.5;" x1="263" x2="3036" y1="1055.54" y2="1055.54"/>
  <g id="H-reference" style="fill:#27AAE1;stroke:none;" transform="matrix(1 0 0 1 339 1556)">
   <path d="M0.993654 0L3.63775 0L29.3281-67.1323L30.0303-67.1323L30.0303-70.459L28.1226-70.459ZM11.6885-24.4799L46.9815-24.4799L46.2315-26.7285L12.4385-26.7285ZM55.1196 0L57.7637 0L30.6382-70.459L29.4326-70.459L29.4326-67.1323Z"/>
  </g>
  <line id="Baseline-L" style="fill:none;stroke:#27AAE1;opacity:1;stroke-width:0.5;" x1="263" x2="3036" y1="1556" y2="1556"/>
  <line id="Capline-L" style="fill:none;stroke:#27AAE1;opacity:1;stroke-width:0.5;" x1="263" x2="3036" y1="1485.54" y2="1485.54"/>
  <line id="left-margin-Regular-M" style="fill:none;stroke:#00AEEF;stroke-width:0.5;opacity:1.0;" x1="1406.14" x2="1406.14" y1="1030.79" y2="1150.12"/>
  <line id="right-margin-Regular-M" style="fill:none;stroke:#00AEEF;stroke-width:0.5;opacity:1.0;" x1="1493.54" x2="1493.54" y1="1030.79" y2="1150.12"/>
 </g>
 <g id="Symbols">
  <g id="Semibold-L" transform="matrix(1 0 0 1 1988.81 1556)">
   <path class="monochrome-0 multicolor-0:tintColor hierarchical-0:primary SFSymbolsPreviewWireframe" d="M101-4.3C99.7-28.2 69.6-39 66.7-40.1C66.6-40.2 66.6-40.3 66.6-40.4L97.6-71.5L97.6-74.8C97.6-75.3 97.1-75.8 96.6-75.8L39.5-75.8L39.5-94.5L39.5-94.5L39.5-100.1L18.4-95.7L18.4-92.5L19.6-92.5C19.6-92.5 24.8-92.5 24.8-87.3L24.8-75.7L8.5-75.7C8.2-75.7 7.9-75.4 7.9-75.1L7.9-67.8L24.9-67.8C24.9-67.8 24.9-60 24.9-50.9L24.9-28C24.9-15.5 32.9-6.8 47-8C50-8.2 52.7-9.4 55.1-10.9C56.2-11.6 56.8-12.7 56.8-14L56.8-17.9C52.2-14.8 48.4-15 48.4-15C39.5-15 39.7-26.3 39.7-26.3L39.7-68L80.8-68L51.2-38.2C51.1-34.3 51.1-31.2 51.1-31.2C51.1-31.1 51.2-31 51.3-31C78.4-26.4 85.7-8.9 85.7-3.8C85.7-3.8 88.6 21 63.8 22.7C63.8 22.7 47.6 23.4 44.7 16.9C44.6 16.7 44.7 16.4 44.9 16.3C47.6 15.1 49.4 12.7 49.4 9.4C49.4 4.6 46.5 0.7 40.3 0.7C35.3 0.7 31.2 4.6 31.2 9.4C31.2 9.4 28.9 30.3 63.7 29.7C103.4 29 101-4.3 101-4.3Z"/>
  </g>
  <g id="Regular-L" transform="matrix(1 0 0 1 1395.39 1556)">
   <path class="monochrome-0 multicolor-0:tintColor hierarchical-0:primary SFSymbolsPreviewWireframe" d="M101-4.3C99.7-28.2 69.6-39 66.7-40.1C66.6-40.2 66.6-40.3 66.6-40.4L97.6-71.5L97.6-74.8C97.6-75.3 97.1-75.8 96.6-75.8L39.5-75.8L39.5-94.5L39.5-94.5L39.5-100.1L18.4-95.7L18.4-92.5L19.6-92.5C19.6-92.5 24.8-92.5 24.8-87.3L24.8-75.7L8.5-75.7C8.2-75.7 7.9-75.4 7.9-75.1L7.9-67.8L24.9-67.8C24.9-67.8 24.9-60 24.9-50.9L24.9-28C24.9-15.5 32.9-6.8 47-8C50-8.2 52.7-9.4 55.1-10.9C56.2-11.6 56.8-12.7 56.8-14L56.8-17.9C52.2-14.8 48.4-15 48.4-15C39.5-15 39.7-26.3 39.7-26.3L39.7-68L80.8-68L51.2-38.2C51.1-34.3 51.1-31.2 51.1-31.2C51.1-31.1 51.2-31 51.3-31C78.4-26.4 85.7-8.9 85.7-3.8C85.7-3.8 88.6 21 63.8 22.7C63.8 22.7 47.6 23.4 44.7 16.9C44.6 16.7 44.7 16.4 44.9 16.3C47.6 15.1 49.4 12.7 49.4 9.4C49.4 4.6 46.5 0.7 40.3 0.7C35.3 0.7 31.2 4.6 31.2 9.4C31.2 9.4 28.9 30.3 63.7 29.7C103.5 29 101-4.3 101-4.3Z"/>
  </g>
  <g id="Semibold-M" transform="matrix(1 0 0 1 1999.57 1126)">
   <path class="monochrome-0 multicolor-0:tintColor hierarchical-0:primary SFSymbolsPreviewWireframe" d="M79.5-11.5C78.5-29.9 55.4-38.2 53.1-39.1C53-39.1 53-39.2 53.1-39.3L76.9-63.2L76.9-65.8C76.9-66.2 76.5-66.6 76.1-66.6L32.2-66.6L32.2-81L32.2-81L32.2-85.3L16-81.9L16-79.5L16.9-79.5C16.9-79.5 20.9-79.5 20.9-75.5L20.9-66.6L8.4-66.6C8.2-66.6 7.9-66.4 7.9-66.1L7.9-60.5L20.9-60.5C20.9-60.5 20.9-54.5 20.9-47.5L20.9-29.9C20.9-20.3 27.1-13.6 37.9-14.5C40.2-14.7 42.3-15.6 44.1-16.8C44.9-17.3 45.4-18.2 45.4-19.2L45.4-22.2C41.9-19.9 38.9-20 38.9-20C32-20 32.2-28.7 32.2-28.7L32.2-60.6L63.8-60.6L41.1-37.7C41.1-34.7 41-32.3 41-32.3C41-32.2 41-32.2 41.1-32.2C61.9-28.7 67.6-15.2 67.6-11.3C67.6-11.3 69.9 7.8 50.8 9.1C50.8 9.1 38.3 9.6 36.1 4.6C36 4.4 36.1 4.2 36.3 4.1C38.4 3.2 39.8 1.3 39.8-1.2C39.8-4.9 37.5-7.9 32.8-7.9C29-7.9 25.8-4.9 25.8-1.2C25.8-1.2 24 14.9 50.8 14.4C81.4 14.1 79.5-11.5 79.5-11.5Z"/>
  </g>
  <g id="Regular-M" transform="matrix(1 0 0 1 1406.14 1126)">
   <path class="monochrome-0 multicolor-0:tintColor hierarchical-0:primary SFSymbolsPreviewWireframe" d="M79.5-11.5C78.5-29.9 55.4-38.2 53.1-39.1C53-39.1 53-39.2 53.1-39.3L76.9-63.2L76.9-65.8C76.9-66.2 76.5-66.6 76.1-66.6L32.2-66.6L32.2-81L32.2-81L32.2-85.3L16-81.9L16-79.5L16.9-79.5C16.9-79.5 20.9-79.5 20.9-75.5L20.9-66.6L8.4-66.6C8.2-66.6 7.9-66.4 7.9-66.1L7.9-60.5L20.9-60.5C20.9-60.5 20.9-54.5 20.9-47.5L20.9-29.9C20.9-20.3 27.1-13.6 37.9-14.5C40.2-14.7 42.3-15.6 44.1-16.8C44.9-17.3 45.4-18.2 45.4-19.2L45.4-22.2C41.9-19.9 38.9-20 38.9-20C32-20 32.2-28.7 32.2-28.7L32.2-60.6L63.8-60.6L41.1-37.7C41.1-34.7 41-32.3 41-32.3C41-32.2 41-32.2 41.1-32.2C61.9-28.7 67.6-15.2 67.6-11.3C67.6-11.3 69.9 7.8 50.8 9.1C50.8 9.1 38.3 9.6 36.1 4.6C36 4.4 36.1 4.2 36.3 4.1C38.4 3.2 39.8 1.3 39.8-1.2C39.8-4.9 37.5-7.9 32.8-7.9C29-7.9 25.8-4.9 25.8-1.2C25.8-1.2 24 14.9 50.8 14.4C81.4 14.1 79.5-11.5 79.5-11.5Z"/>
  </g>
  <g id="Semibold-S" transform="matrix(1 0 0 1 2006.77 696)">
   <path class="monochrome-0 multicolor-0:tintColor hierarchical-0:primary SFSymbolsPreviewWireframe" d="M65.1-16.2C64.3-30.9 45.8-37.6 44-38.3C43.9-38.3 43.9-38.4 44-38.5L63.1-57.6L63.1-59.7C63.1-60 62.8-60.3 62.5-60.3L27.4-60.3L27.4-71.8L27.4-71.8L27.4-75.3L14.4-72.6L14.4-70.7L15.1-70.7C15.1-70.7 18.3-70.7 18.3-67.5L18.3-60.4L8.3-60.4C8.1-60.4 7.9-60.2 7.9-60L7.9-55.5L18.3-55.5C18.3-55.5 18.3-50.7 18.3-45.1L18.3-31C18.3-23.3 23.2-18 31.9-18.7C33.7-18.8 35.4-19.6 36.9-20.5C37.5-20.9 37.9-21.6 37.9-22.4L37.9-24.8C35.1-22.9 32.7-23 32.7-23C27.2-23 27.3-30 27.3-30L27.3-55.5L52.6-55.5L34.4-37.2C34.4-34.8 34.3-32.9 34.3-32.9C34.3-32.8 34.3-32.8 34.4-32.8C51.1-30 55.6-19.2 55.6-16.1C55.6-16.1 57.4-0.8 42.1 0.2C42.1 0.2 32.1 0.6 30.3-3.4C30.2-3.5 30.3-3.7 30.4-3.8C32.1-4.6 33.2-6 33.2-8C33.2-11 31.4-13.4 27.6-13.4C24.5-13.4 22-11 22-8C22-8 20.6 4.9 42 4.5C66.6 4.3 65.1-16.2 65.1-16.2Z"/>
  </g>
  <g id="Regular-S" transform="matrix(1 0 0 1 1413.35 696)">
   <path class="monochrome-0 multicolor-0:tintColor hierarchical-0:primary SFSymbolsPreviewWireframe" d="M65.1-16.2C64.3-30.9 45.8-37.6 44-38.3C43.9-38.3 43.9-38.4 44-38.5L63.1-57.6L63.1-59.7C63.1-60 62.8-60.3 62.5-60.3L27.4-60.3L27.4-71.8L27.4-71.8L27.4-75.3L14.4-72.6L14.4-70.7L15.1-70.7C15.1-70.7 18.3-70.7 18.3-67.5L18.3-60.4L8.3-60.4C8.1-60.4 7.9-60.2 7.9-60L7.9-55.5L18.3-55.5C18.3-55.5 18.3-50.7 18.3-45.1L18.3-31C18.3-23.3 23.2-18 31.9-18.7C33.7-18.8 35.4-19.6 36.9-20.5C37.5-20.9 37.9-21.6 37.9-22.4L37.9-24.8C35.1-22.9 32.7-23 32.7-23C27.2-23 27.3-30 27.3-30L27.3-55.5L52.6-55.5L34.4-37.2C34.4-34.8 34.3-32.9 34.3-32.9C34.3-32.8 34.3-32.8 34.4-32.8C51.1-30 55.6-19.2 55.6-16.1C55.6-16.1 57.4-0.8 42.1 0.2C42.1 0.2 32.1 0.6 30.3-3.4C30.2-3.5 30.3-3.7 30.4-3.8C32.1-4.6 33.2-6 33.2-8C33.2-11 31.4-13.4 27.6-13.4C24.5-13.4 22-11 22-8C22-8 20.6 4.9 42 4.5C66.6 4.3 65.1-16.2 65.1-16.2Z"/>
  </g>
 </g>
</svg>
